<?xml version="1.0" encoding="UTF-8" standalone="no"?>
<svg
   xmlns:dc="http://purl.org/dc/elements/1.1/"
   xmlns:cc="http://creativecommons.org/ns#"
   xmlns:rdf="http://www.w3.org/1999/02/22-rdf-syntax-ns#"
   xmlns:svg="http://www.w3.org/2000/svg"
   xmlns="http://www.w3.org/2000/svg"
   xmlns:sodipodi="http://sodipodi.sourceforge.net/DTD/sodipodi-0.dtd"
   xmlns:inkscape="http://www.inkscape.org/namespaces/inkscape"
   version="1.1"
   id="Layer_1"
   x="0px"
   y="0px"
   viewBox="0 0 418.135 418.135"
   style="enable-background:new 0 0 418.135 418.135;"
   xml:space="preserve"
   sodipodi:docname="whatsapp.svg"
   inkscape:version="1.0.2-2 (e86c870879, 2021-01-15)"><metadata
   id="metadata94"><rdf:RDF><cc:Work
       rdf:about=""><dc:format>image/svg+xml</dc:format><dc:type
         rdf:resource="http://purl.org/dc/dcmitype/StillImage" /></cc:Work></rdf:RDF></metadata><defs
   id="defs92" /><sodipodi:namedview
   pagecolor="#ffffff"
   bordercolor="#666666"
   borderopacity="1"
   objecttolerance="10"
   gridtolerance="10"
   guidetolerance="10"
   inkscape:pageopacity="0"
   inkscape:pageshadow="2"
   inkscape:window-width="1366"
   inkscape:window-height="705"
   id="namedview90"
   showgrid="false"
   inkscape:zoom="1.2866658"
   inkscape:cx="209.0675"
   inkscape:cy="209.0675"
   inkscape:window-x="-8"
   inkscape:window-y="-8"
   inkscape:window-maximized="1"
   inkscape:current-layer="Layer_1" />
<g
   id="g57">
	<path
   style="fill:#7AD06D;"
   d="M198.929,0.242C88.5,5.5,1.356,97.466,1.691,208.02c0.102,33.672,8.231,65.454,22.571,93.536   L2.245,408.429c-1.191,5.781,4.023,10.843,9.766,9.483l104.723-24.811c26.905,13.402,57.125,21.143,89.108,21.631   c112.869,1.724,206.982-87.897,210.5-200.724C420.113,93.065,320.295-5.538,198.929,0.242z M323.886,322.197   c-30.669,30.669-71.446,47.559-114.818,47.559c-25.396,0-49.71-5.698-72.269-16.935l-14.584-7.265l-64.206,15.212l13.515-65.607   l-7.185-14.07c-11.711-22.935-17.649-47.736-17.649-73.713c0-43.373,16.89-84.149,47.559-114.819   c30.395-30.395,71.837-47.56,114.822-47.56C252.443,45,293.218,61.89,323.887,92.558c30.669,30.669,47.559,71.445,47.56,114.817   C371.446,250.361,354.281,291.803,323.886,322.197z"
   id="path53" />
	<path
   style="fill:#7AD06D;"
   d="M309.712,252.351l-40.169-11.534c-5.281-1.516-10.968-0.018-14.816,3.903l-9.823,10.008   c-4.142,4.22-10.427,5.576-15.909,3.358c-19.002-7.69-58.974-43.23-69.182-61.007c-2.945-5.128-2.458-11.539,1.158-16.218   l8.576-11.095c3.36-4.347,4.069-10.185,1.847-15.21l-16.9-38.223c-4.048-9.155-15.747-11.82-23.39-5.356   c-11.211,9.482-24.513,23.891-26.13,39.854c-2.851,28.144,9.219,63.622,54.862,106.222c52.73,49.215,94.956,55.717,122.449,49.057   c15.594-3.777,28.056-18.919,35.921-31.317C323.568,266.34,319.334,255.114,309.712,252.351z"
   id="path55" />
</g>
<g
   id="g59">
</g>
<g
   id="g61">
</g>
<g
   id="g63">
</g>
<g
   id="g65">
</g>
<g
   id="g67">
</g>
<g
   id="g69">
</g>
<g
   id="g71">
</g>
<g
   id="g73">
</g>
<g
   id="g75">
</g>
<g
   id="g77">
</g>
<g
   id="g79">
</g>
<g
   id="g81">
</g>
<g
   id="g83">
</g>
<g
   id="g85">
</g>
<g
   id="g87">
</g>
<path
   style="fill:#f2f2f2;fill-opacity:1;stroke-width:0.777203"
   d="m 5.0480962,415.48172 c -1.0318399,-1.03183 -2.0753099,-2.6931 -2.3188223,-3.69171 -0.244778,-1.00379 4.5697512,-26.08149 10.7673481,-56.08447 L 24.70672,301.4367 21.000425,293.52933 C 11.650744,273.58181 5.4076846,250.56636 3.0660636,227.41313 1.8857855,215.74289 2.5215541,188.35201 4.2315072,177.20219 6.0581342,165.2916 10.51532,147.9046 14.591841,136.78766 21.743514,117.28457 34.718368,94.292854 47.9252,77.72026 54.647007,69.285399 70.741713,53.177989 79.274665,46.346049 119.81346,13.888516 168.77994,-1.8597702 220.66326,0.87355132 301.27048,5.1201071 372.61551,56.994111 402.18359,132.85452 c 14.04418,36.03199 17.45465,78.84765 9.34144,117.27386 -15.08136,71.42911 -67.93578,130.45614 -137.56111,153.62619 -19.70431,6.55723 -36.94585,9.56521 -58.6788,10.23716 -32.11309,0.99287 -61.3954,-4.68289 -89.99123,-17.44292 l -8.58521,-3.83089 -51.942419,12.30983 c -28.56833,6.77041 -53.269845,12.31438 -54.8922556,12.31994 -2.0912623,0.007 -3.4958832,-0.53594 -4.8259092,-1.86597 z M 226.77949,369.12333 c 11.44829,-1.25162 21.95935,-3.5837 33.86975,-7.51464 59.49286,-19.63519 102.22795,-72.22799 110.03952,-135.42235 1.19966,-9.70507 0.99804,-30.49646 -0.39373,-40.6025 -4.97142,-36.09886 -20.49311,-67.39368 -46.18742,-93.123093 -25.32947,-25.364083 -56.43118,-40.973468 -92.11263,-46.229653 -11.36894,-1.674742 -33.59413,-1.667832 -45.41393,0.01412 -66.2919,9.433313 -119.796764,57.771626 -135.560196,122.470196 -6.14186,25.20833 -5.902835,55.33192 0.636949,80.27253 2.896385,11.04586 6.806803,21.04297 13.33777,34.09839 3.151425,6.29972 5.728207,12.07045 5.726182,12.82385 -0.002,0.7534 -2.968789,15.6861 -6.592809,33.18376 -3.62402,17.49768 -6.507728,31.89354 -6.40824,31.9908 0.09949,0.0973 14.648122,-3.2717 32.330301,-7.48658 l 32.149403,-7.66341 10.59674,5.28583 c 20.70584,10.32841 39.39194,15.99797 59.9491,18.18915 6.16966,0.65762 27.00198,0.48231 34.03324,-0.2864 z"
   id="path96" /><path
   style="fill:#f2f2f2;fill-opacity:1;stroke-width:0.777203"
   d="m 250.15237,306.93912 c -30.1927,-4.43474 -63.75875,-24.23459 -96.72321,-57.05483 -31.29775,-31.16082 -46.4852,-58.6811 -48.25991,-87.44895 -0.87075,-14.1147 2.63699,-24.85661 11.92829,-36.52852 5.574,-7.00217 14.46617,-15.34661 17.91645,-16.81285 5.56039,-2.36296 13.69055,-0.36219 17.0628,4.19904 1.86764,2.52612 18.767,40.45295 19.85048,44.54996 1.16414,4.40204 -0.43472,8.54846 -6.20161,16.08298 -6.64451,8.68114 -7.95353,11.29913 -7.95353,15.90678 0,7.04966 5.10579,14.36239 21.31723,30.53145 21.05587,21.00081 43.92094,37.61538 53.5905,38.94074 5.71046,0.78271 8.66518,-0.78075 17.28459,-9.14593 8.40855,-8.16054 10.18444,-9.22618 15.37537,-9.22618 4.90041,0 46.0783,12.0676 49.13597,14.3998 2.94257,2.24441 5.73168,7.66022 5.73168,11.12962 0,3.4794 -1.60666,6.97555 -6.38274,13.889 -8.07295,11.68575 -19.31773,21.18019 -28.92699,24.42425 -8.4652,2.85783 -23.60187,3.80042 -34.74537,2.16364 z"
   id="path98" /></svg>
